<?xml version="1.0" encoding="utf-8"?>
<!-- Generator: Adobe Illustrator 25.2.0, SVG Export Plug-In . SVG Version: 6.00 Build 0)  -->
<svg version="1.1" id="Layer_1" xmlns="http://www.w3.org/2000/svg" xmlns:xlink="http://www.w3.org/1999/xlink" x="0px" y="0px"
	 viewBox="0 0 272 266.7" style="enable-background:new 0 0 272 266.7;" xml:space="preserve">
<style type="text/css">
	.st0{fill:#FFF693;stroke:#000000;stroke-width:4;stroke-miterlimit:10;}
	.st1{fill:#D6C8F6;stroke:#000000;stroke-width:4;stroke-miterlimit:10;}
	.st2{fill:#FFF794;stroke:#000000;stroke-width:4;stroke-miterlimit:10;}
</style>
<g id="Layer_1_1_">
	<g>
		<path id="Rectangle_4" class="st0" d="M35,2.3h201.8c18.2,0,33,14.8,33,33v196.3c0,18.2-14.8,33-33,33H35c-18.2,0-33-14.8-33-33
			V35.3C2,17.1,16.8,2.3,35,2.3z"/>
		<path class="st1" d="M82,18.7h105.1c34.4,0,62.2,27.8,62.2,62.2v104.4c0,34.4-27.8,62.2-62.2,62.2H82c-34.4,0-62.2-27.8-62.2-62.2
			V80.9C19.8,46.5,47.7,18.7,82,18.7z"/>
		<ellipse class="st2" cx="137.8" cy="135.1" rx="79.5" ry="75.6"/>
		<ellipse class="st2" cx="214.7" cy="53.1" rx="11" ry="10.5"/>
		<ellipse class="st1" cx="137.8" cy="135.7" rx="61.1" ry="58.4"/>
	</g>
</g>
</svg>
